<svg width="16" height="16" viewBox="0 0 16 16" fill="none" xmlns="http://www.w3.org/2000/svg">
  <path d="M13.5 7V4" stroke="black" stroke-linecap="round" stroke-linejoin="round"/>
  <path d="M15 5.5H12" stroke="black" stroke-linecap="round" stroke-linejoin="round"/>
  <path d="M10.5 1.5V3.5" stroke="black" stroke-linecap="round" stroke-linejoin="round"/>
  <path d="M11.5 2.5H9.5" stroke="black" stroke-linecap="round" stroke-linejoin="round"/>
  <path d="M13.5436 9.53752C12.5619 9.8128 11.5247 9.82182 10.5384 9.56366C9.55205 9.3055 8.65223 8.78946 7.93131 8.06854C7.21039 7.34762 6.69435 6.4478 6.43619 5.46148C6.17802 4.47516 6.18705 3.43798 6.46233 2.45625C5.49449 2.72565 4.61413 3.24391 3.90891 3.95947C3.20373 4.67504 2.69826 5.56271 2.44293 6.53429C2.1876 7.50587 2.19133 8.52756 2.45369 9.49732C2.71605 10.4671 3.22792 11.3512 3.93831 12.0616C4.6487 12.772 5.5328 13.2839 6.50255 13.5462C7.4723 13.8086 8.49399 13.8123 9.46557 13.5569C10.4371 13.3016 11.3249 12.7962 12.0404 12.091C12.7559 11.3858 13.2742 10.5054 13.5436 9.53752Z" stroke="black" stroke-linecap="round" stroke-linejoin="round"/>
</svg>
